
<svg xmlns="http://www.w3.org/2000/svg" width="76" height="79" viewBox="0 0 76 79" fill="none" preserveAspectRatio="xMidYMid meet">

  <rect x="4" y="5" width="66" height="67" rx="18" fill="#EEF0FD"></rect>

  <g stroke="#4F5BD5" stroke-width="2" stroke-linecap="round" stroke-linejoin="round">
    <!-- Felső kocka -->
    <path d="M36.5 21.5 44.5 26 36.5 30.5 28.5 26 36.5 21.5Z"></path>
    <path d="M28.5 26v9.5l8 4.5 8-4.5V26"></path>
    <path d="M36.5 30.5V40"></path>

    <!-- Bal alsó kocka -->
    <path d="M27.5 35.5 36.5 40.5 27.5 45.5 19.5 40.5 27.5 35.5Z"></path>
    <path d="M19.5 40.5V50l8 5 9-5v-9.5"></path>
    <path d="M27.5 45.5V55"></path>

    <!-- Jobb alsó kocka -->
    <path d="M45.5 35.5 53.5 40.5 45.5 45.5 36.5 40.5 45.5 35.5Z"></path>
    <path d="M36.5 40.5V50l9 5 8-5v-9.5"></path>
    <path d="M45.5 45.5V55"></path>
  </g>
</svg>